<svg xmlns="http://www.w3.org/2000/svg" viewBox="0 0 509.52 540.42"><defs><style>.cls-1{isolation:isolate;}.cls-2{fill:#f9cf1d;}.cls-3{fill:#232323;}.cls-4{opacity:0.13;mix-blend-mode:multiply;}.cls-5{fill:#454647;}.cls-6{fill:#fff;}.cls-7{fill:#bcbcbc;stroke:#231f20;stroke-miterlimit:10;stroke-width:10px;}</style></defs><title>1</title><g class="cls-1"><g id="Layer_1" data-name="Layer 1"><g id="_Group_" data-name="&lt;Group&gt;"><g id="_Group_2" data-name="&lt;Group&gt;"><g id="_Group_3" data-name="&lt;Group&gt;"><g id="_Group_4" data-name="&lt;Group&gt;"><path id="_Path_" data-name="&lt;Path&gt;" class="cls-2" d="M463.75,87.08A185.2,185.2,0,0,0,333.41,32.51H332c-102.75,0-186.34,84.52-186.34,188.42a183.5,183.5,0,0,0,48.22,124.13l-9,43.47,39.32-16.78a183.19,183.19,0,0,0,105.66,33.4,188.11,188.11,0,0,0,134.43-56,185.35,185.35,0,0,0-.59-262.1Z" transform="translate(-26.16 -15.15)"/></g></g></g></g><g id="_Group_5" data-name="&lt;Group&gt;"><g id="_Group_6" data-name="&lt;Group&gt;"><g id="_Group_7" data-name="&lt;Group&gt;"><g id="_Group_8" data-name="&lt;Group&gt;"><rect id="_Rectangle_" data-name="&lt;Rectangle&gt;" class="cls-2" x="107.74" y="331.98" width="87.18" height="188.43" transform="translate(293.75 -8.63) rotate(41.43)"/></g></g></g></g><g id="_Group_9" data-name="&lt;Group&gt;"><g id="_Group_10" data-name="&lt;Group&gt;"><g id="_Group_11" data-name="&lt;Group&gt;"><g id="_Group_12" data-name="&lt;Group&gt;"><path id="_Compound_Path_" data-name="&lt;Compound Path&gt;" class="cls-3" d="M470.11,80.73a194.13,194.13,0,0,0-136.63-57.2H332c-107.7,0-195.32,88.55-195.32,197.4a191.82,191.82,0,0,0,31.47,105.75L38,474.17l78.83,69.58,130.66-148a192.45,192.45,0,0,0,82.43,18.39,198.13,198.13,0,0,0,140.81-58.62,194.34,194.34,0,0,0-.61-274.78ZM115.23,518.4l-51.89-45.8,112-126.83-8,39.19-6.84,33.66L192,405l35.19-15.15-2.81,4.84ZM329.91,396.16h0A175.23,175.23,0,0,1,154.67,220.93h0c0-98.36,79.16-179.44,177.35-179.44h1.31a177.34,177.34,0,0,1,176,176C510.07,316.29,428.71,396.16,329.91,396.16Z" transform="translate(-26.16 -15.15)"/></g><g id="_Group_13" data-name="&lt;Group&gt;"><path id="_Compound_Path_2" data-name="&lt;Compound Path&gt;" class="cls-3" d="M117.55,555.57,26.16,474.91,157.74,325.85a200.47,200.47,0,0,1-29.4-104.92c0-113.47,91.38-205.78,203.69-205.78h1.52A202.43,202.43,0,0,1,476,74.81h0A202.44,202.44,0,0,1,535.68,217.3c.4,54.19-20.56,105.37-59,144.11A206.5,206.5,0,0,1,329.91,422.5a199.81,199.81,0,0,1-80.25-16.58ZM49.8,473.44l66.28,58.5L245.36,385.47l5.69,2.69a183.18,183.18,0,0,0,78.86,17.59,189.74,189.74,0,0,0,134.87-56.14,186,186,0,0,0-.59-263h0A185.8,185.8,0,0,0,333.41,31.91H332c-103.08,0-186.94,84.8-186.94,189a183.67,183.67,0,0,0,30.09,101.15l3.51,5.35ZM116,530.22,51.52,473.33l128.85-146A182.61,182.61,0,0,1,146.3,220.93C146.3,117.37,229.61,33.12,332,33.12h1.39c100.87.74,183.55,83.42,184.29,184.31a183.34,183.34,0,0,1-53.81,131.32,187.5,187.5,0,0,1-134,55.78,182.51,182.51,0,0,1-88.34-22.68L230.7,400.27ZM75.16,471.86l39.34,34.72,92.35-96.38L149.1,432.64l11.76-57.86ZM186,334.89l-14.16,69.7,62.51-26.9A185.08,185.08,0,0,1,186,334.89Zm146-285c-93.18,0-169,76.74-169,171.06,0,92,74.85,166.86,166.86,166.86A170.88,170.88,0,0,0,452,337,166.71,166.71,0,0,0,501,217.56c-.68-91.79-75.9-167-167.69-167.69Z" transform="translate(-26.16 -15.15)"/></g></g></g></g><g id="_Group_14" data-name="&lt;Group&gt;" class="cls-4"><g id="_Group_15" data-name="&lt;Group&gt;"><g id="_Group_16" data-name="&lt;Group&gt;"><g id="_Group_17" data-name="&lt;Group&gt;"><path id="_Path_2" data-name="&lt;Path&gt;" class="cls-5" d="M398.49,87.57a174,174,0,0,1,81.57,221.66q3.54-5.78,6.68-11.91A174,174,0,1,0,176.85,139.1l-12.41,24.31A174,174,0,0,1,398.49,87.57Z" transform="translate(-26.16 -15.15)"/></g></g></g></g><g id="_Group_18" data-name="&lt;Group&gt;"><g id="_Group_19" data-name="&lt;Group&gt;"><g id="_Group_20" data-name="&lt;Group&gt;"><g id="_Group_21" data-name="&lt;Group&gt;"><g id="_Group_22" data-name="&lt;Group&gt;"><circle id="_Path_3" data-name="&lt;Path&gt;" class="cls-6" cx="230.03" cy="203.67" r="23.94"/></g></g></g></g><g id="_Group_23" data-name="&lt;Group&gt;"><g id="_Group_24" data-name="&lt;Group&gt;"><g id="_Group_25" data-name="&lt;Group&gt;"><g id="_Group_26" data-name="&lt;Group&gt;"><circle id="_Path_4" data-name="&lt;Path&gt;" class="cls-6" cx="307.77" cy="203.67" r="23.94"/></g></g></g></g><g id="_Group_27" data-name="&lt;Group&gt;"><g id="_Group_28" data-name="&lt;Group&gt;"><g id="_Group_29" data-name="&lt;Group&gt;"><g id="_Group_30" data-name="&lt;Group&gt;"><circle id="_Path_5" data-name="&lt;Path&gt;" class="cls-6" cx="381.66" cy="203.67" r="23.94"/></g></g></g></g></g><g id="_Group_31" data-name="&lt;Group&gt;"><g id="_Group_32" data-name="&lt;Group&gt;"><g id="_Group_33" data-name="&lt;Group&gt;"><g id="_Group_34" data-name="&lt;Group&gt;"><path id="_Path_6" data-name="&lt;Path&gt;" class="cls-7" d="M174.92,345.43" transform="translate(-26.16 -15.15)"/></g></g></g></g><g id="_Group_35" data-name="&lt;Group&gt;"><g id="_Group_36" data-name="&lt;Group&gt;"><g id="_Group_37" data-name="&lt;Group&gt;"><g id="_Group_38" data-name="&lt;Group&gt;"><polygon id="_Path_7" data-name="&lt;Path&gt;" class="cls-2" points="283.3 323.49 157.1 376.89 176.76 283 283.3 323.49"/></g></g></g></g></g></g></svg>