<svg xmlns="http://www.w3.org/2000/svg" viewBox="0 0 566.93 121.36"><defs><style>.cls-1{isolation:isolate;}.cls-2{fill:#231f20;}.cls-3{fill:#f9cf1d;}.cls-4{fill:#232323;}.cls-5{opacity:0.13;mix-blend-mode:multiply;}.cls-6{fill:#454647;}.cls-7{fill:#fff;}.cls-8{fill:#bcbcbc;stroke:#231f20;stroke-miterlimit:10;stroke-width:10px;}</style></defs><title>logotype1</title><g class="cls-1"><g id="Layer_1" data-name="Layer 1"><path class="cls-2" d="M557.28,287.22l9.65,14.12H556.77L548.3,288.7h-6.84v12.64h-8.69V261.82h18.07c4.71,0,8.37,1.14,11,3.45s3.93,5.48,3.93,9.6V275a12.51,12.51,0,0,1-2.34,7.83A13.66,13.66,0,0,1,557.28,287.22Zm-.34-11.8v-.11a5,5,0,0,0-1.8-4.24,8,8,0,0,0-5-1.41h-8.64V281h8.82a7.18,7.18,0,0,0,4.94-1.53A5.17,5.17,0,0,0,556.94,275.42Z" transform="translate(0 -222.79)"/><polygon class="cls-2" points="529.95 70.82 529.95 78.56 499.9 78.56 499.9 45.64 499.9 39.04 529.66 39.04 529.66 46.76 508.49 46.76 508.49 54.78 527.12 54.78 527.12 62.52 508.49 62.52 508.49 70.82 529.95 70.82"/><polygon class="cls-2" points="496.64 70.93 496.64 78.56 463.7 78.56 463.7 71.96 485.45 46.65 464.38 46.65 464.38 39.04 496.64 39.04 496.64 45.64 474.88 70.93 496.64 70.93"/><polygon class="cls-2" points="462.63 39.04 447.45 62.81 447.45 78.56 438.75 78.56 438.75 62.97 423.56 39.04 433.72 39.04 443.15 54.89 452.75 39.04 462.63 39.04"/><polygon class="cls-2" points="433.25 70.71 433.25 78.56 404.86 78.56 404.86 39.04 413.55 39.04 413.55 70.71 433.25 70.71"/><path class="cls-2" d="M386.78,261.54l16.94,39.81h-9.09L391,292.49H374.3l-3.61,8.86h-8.87l16.94-39.81Zm1.14,23.27L382.65,272,377.4,284.8Z" transform="translate(0 -222.79)"/><polygon class="cls-2" points="360.7 39.04 360.7 78.56 353.31 78.56 334.15 53.43 334.15 78.56 325.56 78.56 325.56 39.04 333.59 39.04 352.11 63.37 352.11 39.04 360.7 39.04"/><path class="cls-2" d="M307.51,261.54l16.94,39.81h-9.09l-3.63-8.86H295l-3.63,8.86h-8.86l16.94-39.81Zm1.12,23.27L303.38,272l-5.25,12.83Z" transform="translate(0 -222.79)"/><polygon class="cls-2" points="275.87 39.04 275.87 47.05 263.84 47.05 263.84 78.56 255.14 78.56 255.14 47.05 243.11 47.05 243.11 39.04 275.87 39.04"/><path class="cls-2" d="M235.08,261.54,252,301.35h-9.09l-3.61-8.86H222.6L219,301.35h-8.87l16.94-39.81Zm1.14,23.27L231,272,225.7,284.8Z" transform="translate(0 -222.79)"/><polygon class="cls-2" points="207.2 39.04 207.2 78.56 198.5 78.56 198.5 62.69 182.45 62.69 182.45 78.56 173.75 78.56 173.75 72.17 173.75 44.45 173.75 39.04 182.45 39.04 182.45 54.68 198.5 54.68 198.5 39.04 207.2 39.04"/><path class="cls-2" d="M166.25,289.37l5.54,5.59a28.26,28.26,0,0,1-3.17,2.94,18.93,18.93,0,0,1-3.57,2.24,19.18,19.18,0,0,1-4.28,1.41,25.19,25.19,0,0,1-5.19.49,20.48,20.48,0,0,1-8.06-1.59,19.47,19.47,0,0,1-6.44-4.33,19.23,19.23,0,0,1-4.24-6.46,20.62,20.62,0,0,1-1.53-8v-.13a20.57,20.57,0,0,1,5.77-14.43,19.79,19.79,0,0,1,6.49-4.4,21.21,21.21,0,0,1,8.35-1.61,25.65,25.65,0,0,1,5.05.45,21.57,21.57,0,0,1,4.15,1.24,18.17,18.17,0,0,1,3.45,1.91,23,23,0,0,1,2.94,2.49L166,273.62a20.81,20.81,0,0,0-4.71-3.28,12,12,0,0,0-5.39-1.17,10.83,10.83,0,0,0-4.6,1,10.5,10.5,0,0,0-3.64,2.65,12.52,12.52,0,0,0-2.38,3.91,13.53,13.53,0,0,0-.85,4.78v.11a13.63,13.63,0,0,0,.85,4.8,13,13,0,0,0,2.34,4,11,11,0,0,0,3.63,2.67,10.72,10.72,0,0,0,4.65,1,12.14,12.14,0,0,0,5.74-1.24A22.34,22.34,0,0,0,166.25,289.37Z" transform="translate(0 -222.79)"/><g id="_Group_" data-name="&lt;Group&gt;"><g id="_Group_2" data-name="&lt;Group&gt;"><g id="_Group_3" data-name="&lt;Group&gt;"><g id="_Group_4" data-name="&lt;Group&gt;"><path id="_Path_" data-name="&lt;Path&gt;" class="cls-3" d="M98.27,238.94A41.59,41.59,0,0,0,69,226.68h-.31c-23.07,0-41.84,19-41.84,42.31a41.21,41.21,0,0,0,10.83,27.87l-2,9.76,8.83-3.77a41.14,41.14,0,0,0,23.73,7.5A42.24,42.24,0,0,0,98.4,297.8a41.62,41.62,0,0,0-.13-58.86Z" transform="translate(0 -222.79)"/></g></g></g></g><g id="_Group_5" data-name="&lt;Group&gt;"><g id="_Group_6" data-name="&lt;Group&gt;"><g id="_Group_7" data-name="&lt;Group&gt;"><g id="_Group_8" data-name="&lt;Group&gt;"><rect id="_Rectangle_" data-name="&lt;Rectangle&gt;" class="cls-3" x="18.32" y="293.93" width="19.58" height="42.31" transform="translate(215.55 -162.52) rotate(41.43)"/></g></g></g></g><g id="_Group_9" data-name="&lt;Group&gt;"><g id="_Group_10" data-name="&lt;Group&gt;"><g id="_Group_11" data-name="&lt;Group&gt;"><g id="_Group_12" data-name="&lt;Group&gt;"><path id="_Compound_Path_" data-name="&lt;Compound Path&gt;" class="cls-4" d="M99.69,237.51A43.59,43.59,0,0,0,69,224.67h-.32c-24.19,0-43.86,19.89-43.86,44.33a43.08,43.08,0,0,0,7.07,23.75L2.65,325.86l17.7,15.63L49.7,308.25a43.22,43.22,0,0,0,18.51,4.13,44.49,44.49,0,0,0,31.62-13.16,43.64,43.64,0,0,0-.14-61.71ZM20,335.8,8.35,325.51,33.49,297l-1.79,8.8-1.54,7.56,7.08-3,7.9-3.4L44.52,308Zm48.21-27.45h0A39.35,39.35,0,0,1,28.86,269h0c0-22.09,17.78-40.29,39.83-40.29H69a39.82,39.82,0,0,1,39.52,39.52C108.67,290.41,90.4,308.35,68.21,308.35Z" transform="translate(0 -222.79)"/></g><g id="_Group_13" data-name="&lt;Group&gt;"><path id="_Compound_Path_2" data-name="&lt;Compound Path&gt;" class="cls-4" d="M20.52,344.14,0,326l29.55-33.47A45,45,0,0,1,22.94,269c0-25.48,20.52-46.21,45.74-46.21H69a45.46,45.46,0,0,1,32,13.4h0a45.52,45.52,0,0,1,.14,64.36,46.37,46.37,0,0,1-33,13.72,44.87,44.87,0,0,1-18-3.72ZM5.31,325.7l14.88,13.14,29-32.89,1.28.6a41.13,41.13,0,0,0,17.71,4A42.61,42.61,0,0,0,98.5,297.89a41.76,41.76,0,0,0-.13-59.05h0A41.72,41.72,0,0,0,69,226.55h-.31c-23.15,0-42,19-42,42.45a41.24,41.24,0,0,0,6.76,22.71l.79,1.2Zm14.86,12.75L5.69,325.68l28.93-32.78A41,41,0,0,1,27,269c0-23.26,18.71-42.18,41.71-42.18H69a41.87,41.87,0,0,1,41.39,41.39A41.17,41.17,0,0,1,98.3,297.7a42.11,42.11,0,0,1-30.09,12.53,41,41,0,0,1-19.84-5.09l-2.44,4.13ZM11,325.34l8.83,7.8L40.58,311.5l-13,5,2.64-13Zm24.9-30.76-3.18,15.65,14-6A41.56,41.56,0,0,1,35.9,294.59Zm32.78-64c-20.92,0-37.95,17.23-37.95,38.41a37.51,37.51,0,0,0,37.47,37.47,38.37,38.37,0,0,0,27.42-11.42,37.44,37.44,0,0,0,11-26.81A38.1,38.1,0,0,0,69,230.58Z" transform="translate(0 -222.79)"/></g></g></g></g><g id="_Group_14" data-name="&lt;Group&gt;" class="cls-5"><g id="_Group_15" data-name="&lt;Group&gt;"><g id="_Group_16" data-name="&lt;Group&gt;"><g id="_Group_17" data-name="&lt;Group&gt;"><path id="_Path_2" data-name="&lt;Path&gt;" class="cls-6" d="M83.61,239a39.07,39.07,0,0,1,18.32,49.78q.79-1.3,1.5-2.67a39.07,39.07,0,1,0-69.59-35.53l-2.79,5.46A39.07,39.07,0,0,1,83.61,239Z" transform="translate(0 -222.79)"/></g></g></g></g><g id="_Group_18" data-name="&lt;Group&gt;"><g id="_Group_19" data-name="&lt;Group&gt;"><g id="_Group_20" data-name="&lt;Group&gt;"><g id="_Group_21" data-name="&lt;Group&gt;"><g id="_Group_22" data-name="&lt;Group&gt;"><circle id="_Path_3" data-name="&lt;Path&gt;" class="cls-7" cx="51.66" cy="45.74" r="5.38"/></g></g></g></g><g id="_Group_23" data-name="&lt;Group&gt;"><g id="_Group_24" data-name="&lt;Group&gt;"><g id="_Group_25" data-name="&lt;Group&gt;"><g id="_Group_26" data-name="&lt;Group&gt;"><circle id="_Path_4" data-name="&lt;Path&gt;" class="cls-7" cx="69.11" cy="45.74" r="5.38"/></g></g></g></g><g id="_Group_27" data-name="&lt;Group&gt;"><g id="_Group_28" data-name="&lt;Group&gt;"><g id="_Group_29" data-name="&lt;Group&gt;"><g id="_Group_30" data-name="&lt;Group&gt;"><circle id="_Path_5" data-name="&lt;Path&gt;" class="cls-7" cx="85.71" cy="45.74" r="5.38"/></g></g></g></g></g><g id="_Group_31" data-name="&lt;Group&gt;"><g id="_Group_32" data-name="&lt;Group&gt;"><g id="_Group_33" data-name="&lt;Group&gt;"><g id="_Group_34" data-name="&lt;Group&gt;"><path id="_Path_6" data-name="&lt;Path&gt;" class="cls-8" d="M33.4,297" transform="translate(0 -222.79)"/></g></g></g></g><g id="_Group_35" data-name="&lt;Group&gt;"><g id="_Group_36" data-name="&lt;Group&gt;"><g id="_Group_37" data-name="&lt;Group&gt;"><g id="_Group_38" data-name="&lt;Group&gt;"><polygon id="_Path_7" data-name="&lt;Path&gt;" class="cls-3" points="63.62 72.64 35.28 84.63 39.69 63.55 63.62 72.64"/></g></g></g></g></g></g></svg>